<svg xmlns="http://www.w3.org/2000/svg" viewBox="0 0 960 640" width="960" height="640">
  <defs>
    <!-- ── Gradients ──────────────────────────────────────────── -->
    <linearGradient id="hero-grad" x1="0%" y1="0%" x2="100%" y2="100%">
      <stop offset="0%" stop-color="#06B6D4"/>
      <stop offset="100%" stop-color="#A855F7"/>
    </linearGradient>
    <radialGradient id="mesh-cyan" cx="20%" cy="40%" r="50%">
      <stop offset="0%" stop-color="#06B6D4" stop-opacity="0.18"/>
      <stop offset="100%" stop-color="#06B6D4" stop-opacity="0"/>
    </radialGradient>
    <radialGradient id="mesh-purple" cx="80%" cy="20%" r="45%">
      <stop offset="0%" stop-color="#A855F7" stop-opacity="0.14"/>
      <stop offset="100%" stop-color="#A855F7" stop-opacity="0"/>
    </radialGradient>
    <radialGradient id="mesh-bottom" cx="60%" cy="85%" r="35%">
      <stop offset="0%" stop-color="#06B6D4" stop-opacity="0.08"/>
      <stop offset="100%" stop-color="#06B6D4" stop-opacity="0"/>
    </radialGradient>

    <!-- ── Glow filters ───────────────────────────────────────── -->
    <filter id="glow-cyan" x="-50%" y="-50%" width="200%" height="200%">
      <feGaussianBlur in="SourceGraphic" stdDeviation="4" result="blur"/>
      <feMerge><feMergeNode in="blur"/><feMergeNode in="SourceGraphic"/></feMerge>
    </filter>
    <filter id="glow-purple" x="-50%" y="-50%" width="200%" height="200%">
      <feGaussianBlur in="SourceGraphic" stdDeviation="4" result="blur"/>
      <feMerge><feMergeNode in="blur"/><feMergeNode in="SourceGraphic"/></feMerge>
    </filter>
    <filter id="glow-green" x="-50%" y="-50%" width="200%" height="200%">
      <feGaussianBlur in="SourceGraphic" stdDeviation="3" result="blur"/>
      <feMerge><feMergeNode in="blur"/><feMergeNode in="SourceGraphic"/></feMerge>
    </filter>

    <!-- ── Glass panel backgrounds ────────────────────────────── -->
    <linearGradient id="glass-fill" x1="0%" y1="0%" x2="100%" y2="100%">
      <stop offset="0%" stop-color="#ffffff" stop-opacity="0.04"/>
      <stop offset="100%" stop-color="#ffffff" stop-opacity="0.01"/>
    </linearGradient>

    <!-- ── Connection paths (for animateMotion) ────────────────── -->
    <path id="path-v-left" d="M200,268 L200,390" fill="none"/>
    <path id="path-v-right" d="M760,268 L760,390" fill="none"/>
  </defs>

  <!-- ══════════════════════════════════════════════════════════════
       BACKGROUND
       ══════════════════════════════════════════════════════════════ -->
  <rect width="960" height="640" fill="#020617"/>
  <rect width="960" height="640" fill="url(#mesh-cyan)"/>
  <rect width="960" height="640" fill="url(#mesh-purple)"/>
  <rect width="960" height="640" fill="url(#mesh-bottom)"/>

  <!-- Grid overlay -->
  <g opacity="0.04" stroke="#ffffff" stroke-width="0.5">
    <line x1="0" y1="60" x2="960" y2="60"/><line x1="0" y1="120" x2="960" y2="120"/>
    <line x1="0" y1="180" x2="960" y2="180"/><line x1="0" y1="240" x2="960" y2="240"/>
    <line x1="0" y1="300" x2="960" y2="300"/><line x1="0" y1="360" x2="960" y2="360"/>
    <line x1="0" y1="420" x2="960" y2="420"/><line x1="0" y1="480" x2="960" y2="480"/>
    <line x1="0" y1="540" x2="960" y2="540"/><line x1="0" y1="600" x2="960" y2="600"/>
    <line x1="60" y1="0" x2="60" y2="640"/><line x1="120" y1="0" x2="120" y2="640"/>
    <line x1="180" y1="0" x2="180" y2="640"/><line x1="240" y1="0" x2="240" y2="640"/>
    <line x1="300" y1="0" x2="300" y2="640"/><line x1="360" y1="0" x2="360" y2="640"/>
    <line x1="420" y1="0" x2="420" y2="640"/><line x1="480" y1="0" x2="480" y2="640"/>
    <line x1="540" y1="0" x2="540" y2="640"/><line x1="600" y1="0" x2="600" y2="640"/>
    <line x1="660" y1="0" x2="660" y2="640"/><line x1="720" y1="0" x2="720" y2="640"/>
    <line x1="780" y1="0" x2="780" y2="640"/><line x1="840" y1="0" x2="840" y2="640"/>
    <line x1="900" y1="0" x2="900" y2="640"/>
  </g>

  <!-- ══════════════════════════════════════════════════════════════
       TITLE + LIVE BADGE
       ══════════════════════════════════════════════════════════════ -->
  <text x="480" y="52" text-anchor="middle" fill="url(#hero-grad)"
        font-family="'Orbitron','Space Grotesk',system-ui,sans-serif" font-weight="700"
        font-size="13" letter-spacing="3">DEPLOYMENT ARCHITECTURE</text>

  <!-- Live badge -->
  <g transform="translate(902, 38)">
    <rect x="-28" y="-11" width="56" height="22" rx="11" fill="rgba(34,197,94,0.08)" stroke="rgba(34,197,94,0.2)" stroke-width="1"/>
    <circle cx="-17" cy="0" r="3" fill="#22C55E" filter="url(#glow-green)">
      <animate attributeName="opacity" values="0.4;1;0.4" dur="2s" repeatCount="indefinite"/>
      <animate attributeName="r" values="2.5;3.5;2.5" dur="2s" repeatCount="indefinite"/>
    </circle>
    <text x="-6" y="3.5" fill="#22C55E" font-family="'JetBrains Mono','Fira Code',monospace"
          font-size="9" font-weight="600" letter-spacing="0.8">LIVE</text>
  </g>

  <!-- ══════════════════════════════════════════════════════════════
       CONNECTION LINES
       ══════════════════════════════════════════════════════════════ -->

  <!-- Horizontal: Vercel ↔ Railway (right edge 370 → left edge 590) -->
  <line x1="370" y1="174" x2="590" y2="174" stroke="#475569" stroke-width="1.5"
        stroke-dasharray="6,4" opacity="0.35">
    <animate attributeName="stroke-dashoffset" values="0;-20" dur="2s" repeatCount="indefinite"/>
  </line>
  <polygon points="586,170 594,174 586,178" fill="#475569" opacity="0.4"/>
  <polygon points="374,170 366,174 374,178" fill="#475569" opacity="0.4"/>

  <!-- Vertical: Vercel → Supabase (bottom 268 → top 390) -->
  <line x1="200" y1="268" x2="200" y2="390" stroke="#06B6D4" stroke-width="1.5"
        stroke-dasharray="6,4" opacity="0.35">
    <animate attributeName="stroke-dashoffset" values="0;-20" dur="1.5s" repeatCount="indefinite"/>
  </line>
  <polygon points="196,386 200,394 204,386" fill="#06B6D4" opacity="0.4"/>

  <!-- Vertical: Railway → Mantle (bottom 268 → top 390) -->
  <line x1="760" y1="268" x2="760" y2="390" stroke="#A855F7" stroke-width="1.5"
        stroke-dasharray="6,4" opacity="0.35">
    <animate attributeName="stroke-dashoffset" values="0;-20" dur="1.5s" repeatCount="indefinite"/>
  </line>
  <polygon points="756,386 760,394 764,386" fill="#A855F7" opacity="0.4"/>

  <!-- ── Animated flow dots ───────────────────────────────────── -->
  <circle r="3" fill="#06B6D4" filter="url(#glow-cyan)">
    <animateMotion dur="2s" repeatCount="indefinite" keyTimes="0;1" keySplines="0.4 0 0.2 1" calcMode="spline">
      <mpath href="#path-v-left"/>
    </animateMotion>
    <animate attributeName="opacity" values="0;1;1;0" keyTimes="0;0.1;0.85;1" dur="2s" repeatCount="indefinite"/>
  </circle>
  <circle r="3" fill="#A855F7" filter="url(#glow-purple)">
    <animateMotion dur="2s" repeatCount="indefinite" begin="0.7s" keyTimes="0;1" keySplines="0.4 0 0.2 1" calcMode="spline">
      <mpath href="#path-v-right"/>
    </animateMotion>
    <animate attributeName="opacity" values="0;1;1;0" keyTimes="0;0.1;0.85;1" dur="2s" repeatCount="indefinite" begin="0.7s"/>
  </circle>

  <!-- ── Connection labels ────────────────────────────────────── -->
  <!-- Horizontal label -->
  <g transform="translate(480, 174)">
    <rect x="-58" y="-11" width="116" height="22" rx="11" fill="rgba(2,6,23,0.8)" stroke="rgba(255,255,255,0.1)" stroke-width="1"/>
    <text x="0" y="4" text-anchor="middle" fill="#64748B" font-family="'JetBrains Mono',monospace" font-size="9" letter-spacing="0.5">◂ API + WSS ▸</text>
  </g>
  <!-- Left vertical label -->
  <text x="215" y="334" text-anchor="start" fill="#06B6D4" opacity="0.5"
        font-family="'JetBrains Mono',monospace" font-size="9" letter-spacing="0.5">▼ Realtime + SQL</text>
  <!-- Right vertical label -->
  <text x="775" y="334" text-anchor="start" fill="#A855F7" opacity="0.5"
        font-family="'JetBrains Mono',monospace" font-size="9" letter-spacing="0.5">▼ Tx + Events</text>

  <!-- ══════════════════════════════════════════════════════════════
       NODE: VERCEL (top-left, cyan)
       ══════════════════════════════════════════════════════════════ -->
  <g transform="translate(30, 80)">
    <rect width="340" height="188" rx="16" fill="url(#glass-fill)" stroke="rgba(255,255,255,0.08)" stroke-width="1"/>
    <!-- Subtle top border glow -->
    <line x1="20" y1="0.5" x2="320" y2="0.5" stroke="#06B6D4" stroke-width="1" opacity="0.12"/>

    <!-- Icon: Vercel triangle -->
    <rect x="20" y="20" width="34" height="34" rx="8" fill="rgba(6,182,212,0.12)"/>
    <g transform="translate(28, 28)">
      <polygon points="9,2 17,16 1,16" fill="#06B6D4" stroke="none"/>
    </g>

    <!-- Title -->
    <text x="64" y="34" fill="#06B6D4" font-family="'Orbitron','Space Grotesk',system-ui,sans-serif"
          font-weight="700" font-size="13" letter-spacing="1.5">VERCEL</text>
    <text x="64" y="50" fill="#475569" font-family="'JetBrains Mono',monospace" font-size="10" letter-spacing="0.3">Next.js 16 Frontend</text>

    <!-- Items -->
    <g transform="translate(20, 72)">
      <rect width="300" height="28" rx="6" fill="rgba(255,255,255,0.02)"/>
      <circle cx="14" cy="14" r="3" fill="#06B6D4"/>
      <text x="26" y="18" fill="#94A3B8" font-family="'JetBrains Mono',monospace" font-size="11">App Router (SSR + Client)</text>
    </g>
    <g transform="translate(20, 108)">
      <rect width="300" height="28" rx="6" fill="rgba(255,255,255,0.02)"/>
      <circle cx="14" cy="14" r="3" fill="#06B6D4"/>
      <text x="26" y="18" fill="#94A3B8" font-family="'JetBrains Mono',monospace" font-size="11">React 19 + Tailwind v4</text>
    </g>
    <g transform="translate(20, 144)">
      <rect width="300" height="28" rx="6" fill="rgba(255,255,255,0.02)"/>
      <circle cx="14" cy="14" r="3" fill="#06B6D4"/>
      <text x="26" y="18" fill="#94A3B8" font-family="'JetBrains Mono',monospace" font-size="11">API Routes (/api/*)</text>
    </g>
  </g>

  <!-- ══════════════════════════════════════════════════════════════
       NODE: RAILWAY (top-right, purple)
       ══════════════════════════════════════════════════════════════ -->
  <g transform="translate(590, 80)">
    <rect width="340" height="188" rx="16" fill="url(#glass-fill)" stroke="rgba(255,255,255,0.08)" stroke-width="1"/>
    <line x1="20" y1="0.5" x2="320" y2="0.5" stroke="#A855F7" stroke-width="1" opacity="0.12"/>

    <!-- Icon: Railway train tracks -->
    <rect x="20" y="20" width="34" height="34" rx="8" fill="rgba(168,85,247,0.12)"/>
    <g transform="translate(29, 27)" fill="none" stroke="#A855F7" stroke-width="1.6" stroke-linecap="round">
      <line x1="3" y1="2" x2="3" y2="18"/>
      <line x1="13" y1="2" x2="13" y2="18"/>
      <line x1="3" y1="5" x2="13" y2="5"/>
      <line x1="3" y1="10" x2="13" y2="10"/>
      <line x1="3" y1="15" x2="13" y2="15"/>
    </g>

    <!-- Title -->
    <text x="64" y="34" fill="#A855F7" font-family="'Orbitron','Space Grotesk',system-ui,sans-serif"
          font-weight="700" font-size="13" letter-spacing="1.5">RAILWAY</text>
    <text x="64" y="50" fill="#475569" font-family="'JetBrains Mono',monospace" font-size="10" letter-spacing="0.3">Python FastAPI Backend</text>

    <!-- Items -->
    <g transform="translate(20, 72)">
      <rect width="300" height="28" rx="6" fill="rgba(255,255,255,0.02)"/>
      <circle cx="14" cy="14" r="3" fill="#A855F7"/>
      <text x="26" y="18" fill="#94A3B8" font-family="'JetBrains Mono',monospace" font-size="11">AI Agent Engine</text>
    </g>
    <g transform="translate(20, 108)">
      <rect width="300" height="28" rx="6" fill="rgba(255,255,255,0.02)"/>
      <circle cx="14" cy="14" r="3" fill="#A855F7"/>
      <text x="26" y="18" fill="#94A3B8" font-family="'JetBrains Mono',monospace" font-size="11">DeepSeek R1 (reasoner)</text>
    </g>
    <g transform="translate(20, 144)">
      <rect width="300" height="28" rx="6" fill="rgba(255,255,255,0.02)"/>
      <circle cx="14" cy="14" r="3" fill="#A855F7"/>
      <text x="26" y="18" fill="#94A3B8" font-family="'JetBrains Mono',monospace" font-size="11">Bybit API (Testnet)</text>
    </g>
  </g>

  <!-- ══════════════════════════════════════════════════════════════
       NODE: SUPABASE (bottom-left, green)
       ══════════════════════════════════════════════════════════════ -->
  <g transform="translate(30, 390)">
    <rect width="340" height="188" rx="16" fill="url(#glass-fill)" stroke="rgba(255,255,255,0.08)" stroke-width="1"/>
    <line x1="20" y1="0.5" x2="320" y2="0.5" stroke="#22C55E" stroke-width="1" opacity="0.12"/>

    <!-- Icon: Supabase database -->
    <rect x="20" y="20" width="34" height="34" rx="8" fill="rgba(34,197,94,0.12)"/>
    <g transform="translate(28, 28)">
      <svg width="18" height="18" viewBox="0 0 24 24" fill="none">
        <g transform="scale(0.375) translate(-32, -32)">
          <path d="m 37.41219,62.936701 c -1.634985,2.05896 -4.950068,0.93085 -4.989463,-1.69817 L 31.846665,22.786035 h 25.855406 c 4.683108,0 7.294967,5.409033 4.382927,9.07673 z" fill="#249361"/>
          <path d="m 26.89694,1.0634102 c 1.634986,-2.05918508 4.950125,-0.93090008 4.989521,1.698149 L 32.138899,41.214003 H 6.607076 c -4.6832501,0 -7.29518376,-5.409032 -4.3830007,-9.07673 z" fill="#3ECF8E"/>
        </g>
      </svg>
    </g>

    <!-- Title -->
    <text x="64" y="34" fill="#22C55E" font-family="'Orbitron','Space Grotesk',system-ui,sans-serif"
          font-weight="700" font-size="13" letter-spacing="1.5">SUPABASE</text>
    <text x="64" y="50" fill="#475569" font-family="'JetBrains Mono',monospace" font-size="10" letter-spacing="0.3">PostgreSQL + Realtime</text>

    <!-- Items -->
    <g transform="translate(20, 72)">
      <rect width="300" height="28" rx="6" fill="rgba(255,255,255,0.02)"/>
      <circle cx="14" cy="14" r="3" fill="#22C55E"/>
      <text x="26" y="18" fill="#94A3B8" font-family="'JetBrains Mono',monospace" font-size="11">5 tables (trade data)</text>
    </g>
    <g transform="translate(20, 108)">
      <rect width="300" height="28" rx="6" fill="rgba(255,255,255,0.02)"/>
      <circle cx="14" cy="14" r="3" fill="#22C55E"/>
      <text x="26" y="18" fill="#94A3B8" font-family="'JetBrains Mono',monospace" font-size="11">postgres_changes stream</text>
    </g>
    <g transform="translate(20, 144)">
      <rect width="300" height="28" rx="6" fill="rgba(255,255,255,0.02)"/>
      <circle cx="14" cy="14" r="3" fill="#22C55E"/>
      <text x="26" y="18" fill="#94A3B8" font-family="'JetBrains Mono',monospace" font-size="11">CoT token bus</text>
    </g>
  </g>

  <!-- ══════════════════════════════════════════════════════════════
       NODE: MANTLE (bottom-right, amber)
       ══════════════════════════════════════════════════════════════ -->
  <g transform="translate(590, 390)">
    <rect width="340" height="188" rx="16" fill="url(#glass-fill)" stroke="rgba(255,255,255,0.08)" stroke-width="1"/>
    <line x1="20" y1="0.5" x2="320" y2="0.5" stroke="#F59E0B" stroke-width="1" opacity="0.12"/>

    <!-- Icon: Mantle hexagon chain -->
    <rect x="20" y="20" width="34" height="34" rx="8" fill="rgba(245,158,11,0.12)"/>
    <g transform="translate(28, 28)">
      <svg width="18" height="18" viewBox="0 0 24 24" fill="none">
        <path d="m12.928 6.082.461-2.975A9 9 0 0 0 12 3h-.005v6.075H12c.259 0 .506.034.754.096l.787-2.96a6 6 0 0 0-.613-.129m-2.39 3.387-1.52-2.605a6 6 0 0 0-.511.338L6.7 4.727a8.5 8.5 0 0 1 1.2-.743l1.378 2.683c.282-.14.563-.264.861-.36L9.204 3.44a9 9 0 0 1 1.373-.327l.484 3.027a5 5 0 0 0-.608.13l.788 2.907a2.7 2.7 0 0 0-.704.293M3.972 7.922l2.734 1.39c-.14.28-.265.562-.36.86l-2.914-.945q.219-.674.54-1.305m13.163 1.097-2.605 1.518c.13.22.225.45.293.698l2.908-.787q.085.303.13.607l3.025-.478a9 9 0 0 0-.331-1.378l-2.87.939a5.5 5.5 0 0 0-.354-.866l2.678-1.378a9 9 0 0 0-.737-1.198L16.798 8.5c.124.169.236.338.338.518m-2.368-5.586c.45.146.888.326 1.305.54L14.683 6.7a6 6 0 0 0-.855-.354zm.219 3.375-1.53 2.655c.225.13.427.281.607.467l4.287-4.303a9 9 0 0 0-1.07-.917L15.51 7.151a5 5 0 0 0-.523-.337zm-5.524 3.735-2.655-1.53c.107-.18.225-.354.343-.523L4.71 6.718a9 9 0 0 1 .917-1.069L9.93 9.936q-.272.27-.467.607m-3.251-.084 2.959.787a3 3 0 0 0-.096.754H3c0-.467.034-.94.112-1.395l2.97.461c.034-.202.08-.41.13-.607m11.081 4.23 2.734 1.39c.214-.423.393-.862.54-1.306l-2.914-.945c-.096.293-.22.585-.36.86m-3.825-.158 1.508 2.605q.271-.152.517-.338l1.806 2.475a8.5 8.5 0 0 1-1.198.743l-1.379-2.683c-.28.14-.562.264-.866.36l.94 2.868c-.45.14-.912.253-1.379.326l-.478-3.026q.304-.043.608-.13l-.788-2.907a3 3 0 0 0 .703-.293zm-6.604.45 2.605-1.518a2.7 2.7 0 0 1-.293-.698l-2.908.787a5 5 0 0 1-.13-.607l-3.026.478q.112.702.332 1.378l2.87-.94q.143.447.353.867L3.99 16.106c.214.416.461.821.737 1.198L7.202 15.5a5 5 0 0 1-.338-.518m2.368 5.586a9 9 0 0 1-1.305-.54L9.311 17.3q.422.21.86.354zm-.219-3.375 1.53-2.655a3 3 0 0 1-.607-.462L5.649 18.38c.332.326.692.635 1.07.91l1.771-2.435q.253.178.523.338m5.524-3.735 2.65 1.53a5 5 0 0 1-.338.529l2.435 1.766a9 9 0 0 1-.911 1.074l-4.303-4.292q.271-.27.467-.607m-3.29 1.372-.788 2.96c.202.055.405.095.613.128l-.461 2.976a9 9 0 0 0 1.389.107h.006v-6.075H12a3 3 0 0 1-.754-.096m3.582-2.075a3 3 0 0 0 .096-.754H21c0 .467-.034.94-.113 1.395l-2.97-.461a7 7 0 0 1-.129.607z" fill="#F59E0B"/>
      </svg>
    </g>

    <!-- Title -->
    <text x="64" y="34" fill="#F59E0B" font-family="'Orbitron','Space Grotesk',system-ui,sans-serif"
          font-weight="700" font-size="13" letter-spacing="1.5">MANTLE NETWORK</text>
    <text x="64" y="50" fill="#475569" font-family="'JetBrains Mono',monospace" font-size="10" letter-spacing="0.3">Chain ID 5003 (Sepolia)</text>

    <!-- Items -->
    <g transform="translate(20, 72)">
      <rect width="300" height="28" rx="6" fill="rgba(255,255,255,0.02)"/>
      <circle cx="14" cy="14" r="3" fill="#F59E0B"/>
      <text x="26" y="18" fill="#94A3B8" font-family="'JetBrains Mono',monospace" font-size="11">ERC-8004 Agent NFT</text>
    </g>
    <g transform="translate(20, 108)">
      <rect width="300" height="28" rx="6" fill="rgba(255,255,255,0.02)"/>
      <circle cx="14" cy="14" r="3" fill="#F59E0B"/>
      <text x="26" y="18" fill="#94A3B8" font-family="'JetBrains Mono',monospace" font-size="11">CounterTrade Escrow</text>
    </g>
    <g transform="translate(20, 144)">
      <rect width="300" height="28" rx="6" fill="rgba(255,255,255,0.02)"/>
      <circle cx="14" cy="14" r="3" fill="#F59E0B"/>
      <text x="26" y="18" fill="#94A3B8" font-family="'JetBrains Mono',monospace" font-size="11">Immutable audit log</text>
    </g>
  </g>

  <!-- ══════════════════════════════════════════════════════════════
       FOOTER LEGEND
       ══════════════════════════════════════════════════════════════ -->
  <g transform="translate(480, 608)">
    <!-- Frontend -->
    <g transform="translate(-140, 0)">
      <rect x="-38" y="-11" width="76" height="22" rx="11" fill="rgba(255,255,255,0.03)" stroke="rgba(255,255,255,0.08)" stroke-width="1"/>
      <circle cx="-22" cy="0" r="3" fill="#06B6D4"/>
      <text x="-10" y="4" fill="#64748B" font-family="'JetBrains Mono',monospace" font-size="9">Frontend</text>
    </g>
    <!-- Backend -->
    <g transform="translate(-40, 0)">
      <rect x="-38" y="-11" width="76" height="22" rx="11" fill="rgba(255,255,255,0.03)" stroke="rgba(255,255,255,0.08)" stroke-width="1"/>
      <circle cx="-22" cy="0" r="3" fill="#A855F7"/>
      <text x="-10" y="4" fill="#64748B" font-family="'JetBrains Mono',monospace" font-size="9">Backend</text>
    </g>
    <!-- Data -->
    <g transform="translate(50, 0)">
      <rect x="-30" y="-11" width="60" height="22" rx="11" fill="rgba(255,255,255,0.03)" stroke="rgba(255,255,255,0.08)" stroke-width="1"/>
      <circle cx="-15" cy="0" r="3" fill="#22C55E"/>
      <text x="-3" y="4" fill="#64748B" font-family="'JetBrains Mono',monospace" font-size="9">Data</text>
    </g>
    <!-- Chain -->
    <g transform="translate(130, 0)">
      <rect x="-30" y="-11" width="60" height="22" rx="11" fill="rgba(255,255,255,0.03)" stroke="rgba(255,255,255,0.08)" stroke-width="1"/>
      <circle cx="-15" cy="0" r="3" fill="#F59E0B"/>
      <text x="-3" y="4" fill="#64748B" font-family="'JetBrains Mono',monospace" font-size="9">Chain</text>
    </g>
  </g>
</svg>
